<?xml version="1.0" encoding="utf-8"?>
<!-- Generator: Adobe Illustrator 24.3.0, SVG Export Plug-In . SVG Version: 6.00 Build 0)  -->
<svg version="1.1" id="Ebene_1" xmlns="http://www.w3.org/2000/svg" xmlns:xlink="http://www.w3.org/1999/xlink" x="0px" y="0px"
	 viewBox="0 0 377 134" style="enable-background:new 0 0 377 134;" xml:space="preserve">
<style type="text/css">
	.st0{filter:url(#shadow);}
	.st1{fill:#FFFFFF;}
	.st2{fill:#009AA4;}
</style>
<filter  id="shadow">
	<feGaussianBlur  in="SourceAlpha" stdDeviation="5"></feGaussianBlur>
	<feMerge>
		<feMergeNode></feMergeNode>
		<feMergeNode  in="SourceGraphic"></feMergeNode>
	</feMerge>
</filter>
<g class="st0">
	<path class="st1" d="M0,0c45,0,45,124,90,124h197c45,0,45-124,90-124H0"/>
</g>
<g>
	<path d="M185.4,36.4h1.7v8.6l6.5-8.6h2.2l-5.4,6.9l5.7,10.3h-2.2l-4.7-8.7l-2.1,2.7v6h-1.7V36.4L185.4,36.4z M199.6,36.4H198v2.5
		h1.5V36.4z M198,53.6h1.5V41.1H198V53.6z M202.6,53.6h1.5V48c0-3.2,0.9-5,3.4-5v-2.2c-1.7-0.1-2.7,0.9-3.4,2.9h0v-2.6h-1.4V53.6z
		 M217,45.1c-0.2-3-1.9-4.3-4-4.3c-3,0-4.4,2.9-4.4,6.7c0,3.7,1.5,6.4,4.4,6.4c2.3,0,3.8-1.8,4.1-4.8h-1.6c-0.2,1.9-1.1,3.1-2.6,3.1
		c-1.9,0-2.7-2.3-2.7-4.6c0-2.5,0.7-4.9,2.9-4.9c1.3,0,2.1,0.9,2.3,2.5L217,45.1L217,45.1z M219.5,53.6h1.5v-7.1
		c0-2.2,0.9-3.9,2.8-3.9c1.2,0,1.9,1,1.9,2.5v8.4h1.5v-8.2c0-2.7-0.8-4.6-3.2-4.6c-1.1,0-2.5,0.6-2.9,2.1h0v-6.5h-1.5L219.5,53.6
		L219.5,53.6z M236.7,49.6c-0.3,1.6-1.1,2.4-2.4,2.4c-2.1,0-3-1.9-2.9-4.1h7c0.1-3-0.9-7.1-4.2-7.1c-2.5,0-4.4,2.7-4.4,6.5
		c0.1,3.8,1.5,6.5,4.5,6.5c2.1,0,3.6-1.5,4-4.2L236.7,49.6L236.7,49.6z M231.4,46.1c0.1-1.9,1.1-3.5,2.7-3.5c1.5,0,2.6,1.6,2.7,3.5
		H231.4z M248.1,36.4h-1.5v2.5h1.5V36.4z M246.5,53.6h1.5V41.1h-1.5V53.6z M251.2,53.6h1.5v-7.8c0-1,0.7-3.2,2.5-3.2
		c1.4,0,1.7,1.1,1.7,2.8v8.2h1.5v-7.8c0-1.9,1-3.2,2.5-3.2c1.5,0,1.8,1.2,1.8,2.8v8.2h1.5v-9.1c0-2.6-1.3-3.6-3.1-3.6
		c-1.2,0-2.3,0.8-2.9,2.1c-0.4-1.5-1.4-2.1-2.6-2.1c-1.3,0-2.3,0.7-3,2.1h0v-1.8h-1.4L251.2,53.6L251.2,53.6z M185.4,74.6h6.2
		c2.6,0,3.9-2.4,3.9-5c0-2.1-0.9-3.7-2.5-4.2v0c1.2-0.6,1.9-2,1.9-3.8c0-1.7-0.7-2.9-1.5-3.6c-0.8-0.6-2.3-0.6-3.4-0.6h-4.7
		L185.4,74.6L185.4,74.6z M187.1,59.4h3.4c1.5,0,2.7,0.4,2.7,2.7c0,1.8-0.8,2.7-2.7,2.7h-3.4V59.4z M187.1,66.7h3.9
		c1.4,0,2.8,0.6,2.8,2.9c0,1.9-1,3.1-2.4,3.1h-4.3V66.7z M199.9,57.4h-1.5v2.5h1.5V57.4z M198.3,74.6h1.5V62.2h-1.5V74.6z
		 M202.4,70.7c0.1,3.1,1.9,4.2,4,4.2c1.9,0,4-1,4-3.9c0-2.4-1.5-3.1-3.1-3.5c-1.4-0.5-3.1-0.7-3.1-2.2c0-1.3,1.1-1.6,2-1.6
		c1,0,2.1,0.5,2.2,2.1h1.5c-0.1-3.1-1.8-3.9-3.8-3.9c-1.6,0-3.5,1-3.5,3.5c0,2.4,1.5,3.1,3.1,3.5c1.5,0.5,3.1,0.7,3.1,2.3
		c0,1.6-1.3,1.9-2.3,1.9c-1.3,0-2.5-0.6-2.5-2.4H202.4z M214.9,58.5h-1.5v3.7h-1.6V64h1.6v7.9c0,2.3,0.6,2.7,2.2,2.7h1.2v-1.8H216
		c-1,0-1.1-0.2-1.1-1.1V64h1.9v-1.8h-1.9L214.9,58.5L214.9,58.5z M226.9,62.2h-1.5v7.1c0,2.3-0.9,3.9-2.8,3.9c-1.2,0-1.9-1-1.9-2.5
		v-8.4h-1.5v8.2c0,2.7,0.8,4.6,3.2,4.6c1.3,0,2.4-0.7,3.1-2.3h0v2h1.5L226.9,62.2L226.9,62.2z M229.9,74.6h1.5v-7.8
		c0-1,0.7-3.2,2.5-3.2c1.4,0,1.7,1.1,1.7,2.8v8.2h1.5v-7.8c0-1.9,1-3.2,2.5-3.2s1.8,1.2,1.8,2.8v8.2h1.5v-9.1c0-2.6-1.2-3.6-3.1-3.6
		c-1.2,0-2.3,0.8-2.9,2.1c-0.4-1.5-1.4-2.1-2.6-2.1c-1.3,0-2.3,0.7-3,2.1h0v-1.8H230L229.9,74.6L229.9,74.6z M250.5,74.6h1.8
		l1.4-5.2h5.5l1.4,5.2h1.9l-5-17.2h-1.9L250.5,74.6z M256.5,59.5L256.5,59.5l2.2,8h-4.4L256.5,59.5z M272.5,73
		c-0.2,0.1-0.4,0.1-0.5,0.1c-0.5,0-0.5-0.4-0.5-1.4v-6.4c0-2.9-1.8-3.4-3.5-3.4c-2.1,0-3.8,1.1-4,4.2h1.5c0.1-1.8,1-2.4,2.3-2.4
		c1,0,2.1,0.3,2.1,2.1c0,1.5-1.4,1.4-3.1,1.8c-1.6,0.4-3.2,1-3.2,3.8c0,2.5,1.4,3.5,3.1,3.5c1.3,0,2.5-0.6,3.3-1.9
		c0,1.3,0.5,1.9,1.3,1.9c0.5,0,0.8-0.1,1.1-0.4L272.5,73L272.5,73z M270,70.3c0,1.1-0.8,2.8-2.9,2.8c-1,0-1.8-0.5-1.8-1.8
		c0-1.5,0.9-2,1.9-2.3c1-0.2,2.2-0.3,2.8-0.8L270,70.3L270,70.3z M282.6,66.2c-0.2-3-1.9-4.3-4-4.3c-3,0-4.4,2.9-4.4,6.7
		c0,3.7,1.5,6.4,4.4,6.4c2.3,0,3.8-1.8,4.1-4.8H281c-0.2,1.9-1.1,3.1-2.6,3.1c-1.9,0-2.7-2.3-2.7-4.6c0-2.5,0.7-4.9,2.9-4.9
		c1.3,0,2.1,0.9,2.3,2.5L282.6,66.2L282.6,66.2z M285.1,74.6h1.5v-7c0-2.2,0.9-3.9,2.8-3.9c1.2,0,1.9,1,1.9,2.5v8.4h1.5v-8.2
		c0-2.7-0.8-4.6-3.2-4.6c-1.1,0-2.5,0.6-2.9,2.1h0v-6.6h-1.5L285.1,74.6L285.1,74.6z M302.3,70.7c-0.3,1.6-1.1,2.4-2.4,2.4
		c-2.1,0-3-1.9-2.9-4.1h7c0.1-3-0.9-7.1-4.2-7.1c-2.5,0-4.4,2.7-4.4,6.5c0.1,3.8,1.5,6.5,4.5,6.5c2.1,0,3.6-1.5,4-4.2L302.3,70.7
		L302.3,70.7z M297,67.2c0.1-1.9,1.1-3.5,2.7-3.5c1.5,0,2.6,1.6,2.7,3.5H297z M306.2,74.6h1.5v-7c0-2.2,0.9-3.9,2.8-3.9
		c1.2,0,1.9,1,1.9,2.5v8.4h1.5v-8.2c0-2.7-0.8-4.6-3.2-4.6c-1.3,0-2.4,0.7-3.1,2.3h0v-2h-1.4L306.2,74.6L306.2,74.6L306.2,74.6z"/>
</g>
<polygon class="st2" points="127.4,45.9 125.8,50.1 165.4,50.1 163.7,40.1 160.4,34.5 156.7,27.3 151.1,22.5 146.3,17.6 141.5,15.7 
	139.2,13.9 137.6,13.9 136.2,21.1 132.3,34.6 131.2,37.7 130.1,40.6 128.9,43.4 "/>
<polygon class="st2" points="109.7,70.7 111.8,66.6 72.1,66.6 72.1,72.2 75.6,82.3 80.4,89.6 85.4,95.1 90.9,99.5 95.1,101.8 
	98,103.1 99.4,103.4 100.9,95.9 104.9,82.2 106,79.1 107.1,76.2 108.5,73.5 "/>
<polygon class="st2" points="125.7,64.5 159.2,64.5 159.5,67 158.9,70.3 158.5,72.2 157.5,74.7 156.1,78.3 154.1,81.6 151.4,85.1 
	148.5,88.2 145.1,91.2 141.8,93.2 136.6,95.8 131.9,97.1 128.4,97.7 125.6,97.7 "/>
<polygon class="st2" points="111.7,52.9 77.7,52.9 77.4,50.4 78,47 78.4,45.1 79.4,42.6 80.9,39 82.9,35.7 85.6,32.2 88.6,29.1 
	92,26.1 95.4,24.2 100.6,21.6 105.4,20.3 108.9,19.7 111.8,19.7 "/>
<g>
	<path d="M125.6,97.7l0-33.2h33.5C158.7,81.8,143.5,96.8,125.6,97.7 M122.3,62.8l0,32.3h-9.4c0-11.8,3.5-28.1,13.3-40.7h31.9
		l0.2,0.4l-34.2,5.9L122.3,62.8z M137.6,13.9c6.9,2.7,13,7.2,17.7,12.9c5.6,6.8,9,14.8,9.8,23.2h-39.2
		C130.2,41.3,135.5,27.5,137.6,13.9 M160.2,50.9h5.7l0-0.4c-0.8-8.7-4.2-17-10-24.1c-4.9-6-11.3-10.6-18.5-13.4l-0.5-0.2l-0.1,0.5
		c-2.2,13.9-7.6,28.2-12.1,37l-0.3,0.6l0,0l-0.5,0.6c-9.6,11.9-15.1,28.9-14.6,45.3l0,1.7h15.1l0,0h0.1h1v0
		C144.1,97.6,159.8,82,160,64v-0.4h-33.4l36.8-6.3L160.2,50.9z"/>
	<path d="M111,62.6h-32l-0.2-0.3l34.2-6l1.8-2.2V22.5h9.4C124.1,34.1,120.6,50.2,111,62.6 M99.3,103.2c-6.9-2.7-12.9-7.2-17.6-13
		c-5.4-6.7-8.7-14.7-9.5-23.3h39.2C106.8,75.8,101.5,89.7,99.3,103.2 M111.4,19.9v32.6H77.8C78.3,35.2,93.2,20.7,111.4,19.9
		 M127.6,20.7l0-1.7l-15.2,0l0,0h-0.1h-0.9v0C92.6,19.9,77.2,34.9,77,52.9v0.4h33.6l-37.5,6.6l3.9,6.2h-5.8l0,0.4
		c0.8,9,4.1,17.3,9.8,24.2c4.9,6,11.3,10.6,18.5,13.4l0.5,0.2l0.1-0.5c2.2-13.8,7.8-28.3,12.3-37.1l0.3-0.6l0,0l0.5-0.7
		C124.2,51.6,127.9,33.3,127.6,20.7"/>
</g>
<path d="M125.8,50.1"/>
</svg>
