<?xml version="1.0" encoding="utf-8"?>
<!-- Generator: Adobe Illustrator 24.3.0, SVG Export Plug-In . SVG Version: 6.00 Build 0)  -->
<svg version="1.1" id="Ebene_1" xmlns="http://www.w3.org/2000/svg" xmlns:xlink="http://www.w3.org/1999/xlink" x="0px" y="0px"
	 viewBox="0 0 700 700" style="enable-background:new 0 0 700 700;" xml:space="preserve">
<path id="Pfad_15" d="M0,274.4l146.1,23.5L83.4,699.8H207l59.6-382.5l120.6,19.4l-52.7,38.9c-27.1,20.3-32.9,59.2-12.8,86.7
	c19.8,27.3,57.4,33.3,84.5,13.6l0,0l221.1-163.2l0,0L466.6,88l0,0c-19.8-27.7-58-33.9-85.2-13.7l0,0l0,0
	c-27.3,20.1-33.3,58.9-13.5,86.6l0,0l38.3,53.6L285.7,195L316,0.4H192.5l-27.3,175.1L0,149V274.4z"/>
</svg>
